<svg width="24" height="24" viewBox="0 0 24 24" fill="none" xmlns="http://www.w3.org/2000/svg">
<rect x="0.3" y="0.3" width="23.4" height="23.4" rx="4.7" fill="white"/>
<path d="M15.4677 7.11108H20.1197C20.2846 7.11108 20.3845 7.17085 20.3945 7.32027C20.3945 7.49957 20.3245 7.56432 20.2046 7.60915C20.0847 7.64899 18.4508 7.71872 18.026 8.74971L14.6583 18.2627C14.5883 18.447 14.4184 18.5715 14.2285 18.5715C14.0537 18.5715 13.8938 18.4619 13.8188 18.2976C13.574 17.7198 10.3011 10.3086 9.76647 9.04855C9.62157 8.70489 9.30677 7.93787 8.64721 7.93787H8.0576C7.42301 7.93787 7.41802 8.63018 7.56792 8.95392C7.72282 9.28264 11.0306 16.5145 11.0306 16.5145L10.2062 18.2577C10.1412 18.442 9.97134 18.5665 9.78146 18.5665H9.76647C9.58659 18.5665 9.42669 18.4619 9.35674 18.2926L4.94464 8.27157C4.74477 7.80837 4.37502 7.60915 3.80539 7.60915C3.67548 7.60915 3.55556 7.49957 3.55556 7.31031C3.55556 7.20074 3.6405 7.11108 3.74543 7.11108H13.1492C13.2542 7.11108 13.3391 7.20074 13.3391 7.31031V7.38004C13.3391 7.5195 13.2242 7.60417 13.1293 7.61413C13.0343 7.62409 12.7195 7.6988 12.6596 7.71872C12.1099 7.91297 11.7652 8.29149 12.2099 9.39221L14.7632 15.354L16.7369 9.68607C17.3765 7.80339 16.2072 7.61413 15.5427 7.60915C15.3878 7.60915 15.2778 7.49459 15.2778 7.31031C15.2778 7.20074 15.3628 7.11108 15.4677 7.11108Z" fill="#937062"/>
<rect x="0.3" y="0.3" width="23.4" height="23.4" rx="4.7" stroke="#F1E7E1" stroke-width="0.6"/>
</svg>
